<svg width="50" height="28" viewBox="0 0 50 28" fill="none" xmlns="http://www.w3.org/2000/svg">
<rect width="50" height="28" fill="#161F00"/>
<path d="M13.6027 23C12.7876 23 12.0253 22.9304 11.316 22.7911C10.6173 22.6617 10.0298 22.4876 9.55337 22.2687C9.07697 22.0498 8.68527 21.8408 8.37826 21.6418C8.08183 21.4428 7.83305 21.2438 7.6319 21.0448L8.0289 17.4179C8.46295 17.9652 9.04521 18.4428 9.77569 18.8508C10.5062 19.2488 11.2949 19.4478 12.1418 19.4478C12.9887 19.4478 13.5974 19.3632 13.968 19.194C14.3491 19.0249 14.5397 18.7164 14.5397 18.2687C14.5397 17.7911 14.3226 17.3831 13.8886 17.0448C13.4651 16.7065 12.7293 16.2985 11.6813 15.8209C11.3002 15.6418 10.9773 15.4826 10.7126 15.3433C10.4479 15.194 10.0933 14.9552 9.64865 14.6269C9.2146 14.2886 8.85995 13.9403 8.58469 13.5821C8.30944 13.2139 8.06595 12.7463 7.85422 12.1791C7.64249 11.602 7.53662 10.9851 7.53662 10.3284C7.53662 6.77612 9.66982 5 13.9362 5C14.6138 5 15.249 5.06965 15.8418 5.20895C16.4452 5.33831 16.9163 5.48259 17.2551 5.64179C17.5939 5.80099 17.9009 5.99005 18.1761 6.20895C18.462 6.41791 18.642 6.56716 18.7161 6.65672C18.7902 6.73632 18.8431 6.801 18.8749 6.85075L18.0809 9.73134C17.668 9.27363 17.1492 8.93532 16.5246 8.71642C15.9106 8.48756 15.3231 8.37314 14.762 8.37314C13.4069 8.37314 12.7293 8.77115 12.7293 9.56717C12.7293 9.77612 12.7717 9.96518 12.8564 10.1343C12.9411 10.3035 13.0787 10.4577 13.2693 10.597C13.4598 10.7363 13.6345 10.8557 13.7933 10.9552C13.9627 11.0547 14.1903 11.1791 14.4761 11.3284C14.7726 11.4677 14.9949 11.5821 15.1431 11.6716C16.6887 12.2886 17.8215 13.0199 18.5414 13.8657C19.2719 14.7114 19.6371 15.7413 19.6371 16.9552C19.6371 18.9254 19.1184 20.4279 18.0809 21.4627C17.054 22.4876 15.5613 23 13.6027 23Z" fill="#B1D54B"/>
<path d="M21.3674 22.6866V5.19403H26.7824V22.6866H21.3674Z" fill="#B1D54B"/>
<path d="M32.0938 22.6866L26.8375 5.19403H32.6972L34.0787 11.2239L35.5079 17.5522L36.8577 11.2239L38.2869 5.19403H42.4633L37.8582 22.6866H32.0938Z" fill="#B1D54B"/>
</svg>
