<svg width="80" height="80" viewBox="0 0 80 80" fill="none" xmlns="http://www.w3.org/2000/svg">
<g clip-path="url(#clip0_1_168)">
<path d="M65 0H15C6.71573 0 0 6.71573 0 15V65C0 73.2843 6.71573 80 15 80H65C73.2843 80 80 73.2843 80 65V15C80 6.71573 73.2843 0 65 0Z" fill="#00FF9F"/>
<path d="M32.8328 14.6818H37.4458V28.8509C37.4458 30.4418 37.0658 31.8338 36.3058 33.027C35.553 34.2202 34.4983 35.1506 33.1418 35.8182C31.7852 36.4787 30.205 36.8089 28.401 36.8089C26.5899 36.8089 25.0061 36.4787 23.6496 35.8182C22.2931 35.1506 21.2384 34.2202 20.4855 33.027C19.7327 31.8338 19.3563 30.4418 19.3563 28.8509V14.6818H23.9692V28.4567C23.9692 29.2876 24.1503 30.0263 24.5125 30.6726C24.8818 31.3189 25.4003 31.8267 26.0679 32.196C26.7355 32.5653 27.5132 32.75 28.401 32.75C29.2959 32.75 30.0736 32.5653 30.7341 32.196C31.4017 31.8267 31.9166 31.3189 32.2789 30.6726C32.6482 30.0263 32.8328 29.2876 32.8328 28.4567V14.6818ZM45.5663 14.6818L49.9662 22.1179H50.1366L54.5578 14.6818H59.7673L53.1089 25.5909L59.9165 36.5H54.6111L50.1366 29.0533H49.9662L45.4917 36.5H40.2077L47.0365 25.5909L40.3355 14.6818H45.5663Z" fill="#1A1D29"/>
<path d="M26.3052 51.1378C26.2484 50.5649 26.0046 50.1198 25.5737 49.8026C25.1428 49.4853 24.5581 49.3267 23.8194 49.3267C23.3175 49.3267 22.8938 49.3977 22.5481 49.5398C22.2025 49.6771 21.9373 49.8688 21.7527 50.1151C21.5727 50.3613 21.4828 50.6406 21.4828 50.9531C21.4733 51.2135 21.5278 51.4408 21.6461 51.6349C21.7692 51.8291 21.9373 51.9972 22.1504 52.1392C22.3635 52.2765 22.6097 52.3973 22.889 52.5014C23.1684 52.6009 23.4667 52.6861 23.7839 52.7571L25.0907 53.0696C25.7252 53.2116 26.3076 53.401 26.8379 53.6378C27.3682 53.8745 27.8275 54.1657 28.2157 54.5114C28.604 54.857 28.9047 55.2642 29.1177 55.733C29.3355 56.2017 29.4468 56.7391 29.4515 57.3452C29.4468 58.2353 29.2195 59.0071 28.7697 59.6605C28.3246 60.3092 27.6807 60.8134 26.8379 61.1733C25.9998 61.5284 24.9889 61.706 23.8052 61.706C22.631 61.706 21.6083 61.526 20.737 61.1662C19.8706 60.8063 19.1935 60.2737 18.7058 59.5682C18.2228 58.858 17.9695 57.9796 17.9458 56.9332H20.9217C20.9548 57.4209 21.0945 57.8281 21.3407 58.1548C21.5917 58.4768 21.9255 58.7206 22.3422 58.8864C22.7636 59.0473 23.2394 59.1278 23.7697 59.1278C24.2905 59.1278 24.7427 59.0521 25.1262 58.9006C25.5145 58.7491 25.8152 58.5384 26.0282 58.2685C26.2413 57.9986 26.3478 57.6884 26.3478 57.3381C26.3478 57.0114 26.2508 56.7367 26.0566 56.5142C25.8672 56.2917 25.5879 56.1023 25.2186 55.946C24.854 55.7898 24.4065 55.6477 23.8762 55.5199L22.2924 55.1222C21.0661 54.8239 20.0978 54.3575 19.3876 53.723C18.6774 53.0885 18.3246 52.2339 18.3294 51.1591C18.3246 50.2784 18.559 49.509 19.0325 48.8509C19.5107 48.1927 20.1665 47.679 20.9998 47.3097C21.8332 46.9403 22.7801 46.7557 23.8407 46.7557C24.9203 46.7557 25.8625 46.9403 26.6674 47.3097C27.4771 47.679 28.1068 48.1927 28.5566 48.8509C29.0065 49.509 29.2385 50.2713 29.2527 51.1378H26.3052ZM34.5953 46.9545V61.5H31.5201V46.9545H34.5953ZM39.7534 46.9545L43.269 58.0057H43.4039L46.9267 46.9545H50.3358L45.3216 61.5H41.3585L36.3372 46.9545H39.7534ZM52.66 61.5H49.3645L54.3858 46.9545H58.3489L63.3631 61.5H60.0676L56.4242 50.2784H56.3105L52.66 61.5ZM52.454 55.7827H60.2381V58.1832H52.454V55.7827Z" fill="#1A1D29"/>
</g>
<defs>
<clipPath id="clip0_1_168">
<rect width="80" height="80" fill="white"/>
</clipPath>
</defs>
</svg>
